# xmcd CD database file
#
# Track frame offsets:
#	150
#	20523
#	47150
#	77773
#	95663
#	117443
#
# Disc length: 2145 seconds
#
# Revision: 0
# Processed by: cddbd v1.4PL0 Copyright (c) Steve Scherf et al.
# Submitted via: CDex 1.50beta10
#
DISCID=48085f06
DTITLE=Herbie Hancock - Jamming
DYEAR=1991
DGENRE=Jazz
TTITLE0=Jammin' With Herbie
TTITLE1=Herbie's Blues
TTITLE2=Rock Your Soul
TTITLE3=T.C.B. With Herbie
TTITLE4=Soul Power
TTITLE5=Cat Call
EXTD=YEAR: 1991
EXTT0=
EXTT1=
EXTT2=
EXTT3=
EXTT4=
EXTT5=
PLAYORDER=
